<svg width="23" height="24" viewBox="0 0 23 24" fill="none" xmlns="http://www.w3.org/2000/svg">
<path d="M0.585786 20.3612C-0.195262 21.1422 -0.195262 22.4086 0.585786 23.1896C1.36684 23.9707 2.63316 23.9707 3.41421 23.1896L0.585786 20.3612ZM23 2.77539C23 1.67082 22.1046 0.775389 21 0.775389H3C1.89543 0.775389 1 1.67082 1 2.77539C1 3.87996 1.89543 4.77539 3 4.77539H19V20.7754C19 21.88 19.8954 22.7754 21 22.7754C22.1046 22.7754 23 21.88 23 20.7754V2.77539ZM2 21.7754L3.41421 23.1896L22.4142 4.1896L21 2.77539L19.5858 1.36118L0.585786 20.3612L2 21.7754Z" fill="white"/>
</svg>
